<?xml version="1.0" encoding="UTF-8" standalone="no"?>
<svg
   xmlns:dc="http://purl.org/dc/elements/1.1/"
   xmlns:cc="http://creativecommons.org/ns#"
   xmlns:rdf="http://www.w3.org/1999/02/22-rdf-syntax-ns#"
   xmlns:svg="http://www.w3.org/2000/svg"
   xmlns="http://www.w3.org/2000/svg"
   id="svg8"
   version="1.1"
   viewBox="0 0 1776 624"
   height="624mm"
   width="1776mm">
  <defs
     id="defs2">
    <linearGradient
       id="_Linear1"
       x1="0"
       y1="0"
       x2="1"
       y2="0"
       gradientUnits="userSpaceOnUse"
       gradientTransform="matrix(123.029,-123.029,123.029,123.029,590.57489,450.0206)">
      <stop
         offset="0"
         style="stop-color:#ef8a7c;stop-opacity:1"
         id="stop11884" />
      <stop
         offset="1"
         style="stop-color:#5960e9;stop-opacity:1"
         id="stop11886" />
    </linearGradient>
  </defs>
  <metadata
     id="metadata5">
    <rdf:RDF>
      <cc:Work
         rdf:about="">
        <dc:format>image/svg+xml</dc:format>
        <dc:type
           rdf:resource="http://purl.org/dc/dcmitype/StillImage" />
        <dc:title></dc:title>
      </cc:Work>
    </rdf:RDF>
  </metadata>
  <g
     transform="translate(0,327)"
     id="layer1">
    <g
       transform="matrix(0.26458333,0,0,0.26458333,-65.24055,-13.941143)"
       id="g11916"
       style="clip-rule:evenodd;fill-rule:evenodd;stroke-linejoin:round;stroke-miterlimit:1.41420996">
      <rect
         id="gh-readme-header"
         x="226.52718"
         y="5.8007188"
         width="1709.5383"
         height="601.61121"
         style="fill:none;stroke-width:0.96257794" />
      <g
         id="camerakit-logo">
        <text
           id="text11920"
           y="107.84887"
           x="1415.7159"
           style="font-style:normal;font-variant:normal;font-weight:normal;font-stretch:normal;font-size:585.88336182px;line-height:1.25;font-family:Vibrocentric;-inkscape-font-specification:Vibrocentric;letter-spacing:0px;word-spacing:0px;fill:#3c425b;fill-opacity:1;stroke:none;stroke-width:6.10295153"
           xml:space="preserve"><tspan
             style="font-style:normal;font-variant:normal;font-weight:normal;font-stretch:normal;font-size:585.88336182px;font-family:Vibrocentric;-inkscape-font-specification:Vibrocentric;fill:#3c425b;fill-opacity:1;stroke-width:6.10295153"
             y="107.84887"
             x="1415.7159"
             id="tspan11918">Simple Adapter</tspan></text>
        <g
           transform="matrix(6.4290858,0,0,6.4290858,-378.79443,-1175.63)"
           id="g12775">
          <path
             id="left-bracket"
             d="m 845.39139,231.2248 c 0,-5.19397 4.21713,-9.41107 9.41115,-9.41107 h 4.70558 v 4.70553 h -4.70558 c -2.59701,0 -4.70557,2.10856 -4.70557,4.70554 v 37.64428 c 0,2.59699 2.10856,4.70555 4.70557,4.70555 h 4.70558 v 4.70552 h -4.70558 c -5.19402,0 -9.41115,-4.21686 -9.41115,-9.41107 v -12.94021 c 0,-2.59699 -2.10833,-4.70554 -4.70557,-4.70554 h -0.002 v -2.35277 h 0.002 c 2.59724,0 4.70557,-2.10855 4.70557,-4.70554 z m 4.70558,14.14696 c -0.0165,2.58216 -2.11704,4.67377 -4.70275,4.67518 v 0 c 2.59582,0.002 4.70275,2.1095 4.70275,4.70553 v -9.41106 z"
             style="fill:#6260e9;fill-opacity:0.82352941;stroke-width:0.23527774" />
          <path
             id="right-bracket"
             d="m 994.3008,231.22445 c 0,-5.19403 -4.62,-9.41099 -10.31017,-9.41099 h -5.15506 v 4.7054 h 5.15506 c 2.84508,0 5.15507,2.10867 5.15507,4.70559 v 37.64415 c 0,2.59694 -2.30999,4.70541 -5.15507,4.70541 h -5.15506 v 4.70559 h 5.15506 c 5.69017,0 10.31017,-4.21693 10.31017,-9.411 v -12.94026 c 0,-2.59693 2.3097,-4.70542 5.1551,-4.70542 v 0 -2.35279 0 c -2.8454,0 -5.1551,-2.10848 -5.1551,-4.70558 z m -5.1551,14.14688 c 0.018,2.58209 2.3193,4.67368 5.152,4.67511 v 0 c -2.8439,0.002 -5.152,2.10949 -5.152,4.70558 v -9.41099 z"
             style="fill:#9760e9;fill-opacity:1;stroke-width:0.24625798" />
          <text
             xml:space="preserve"
             style="font-style:normal;font-variant:normal;font-weight:normal;font-stretch:normal;font-size:40.00000381px;line-height:1.25;font-family:Vibrocentric;-inkscape-font-specification:Vibrocentric;letter-spacing:0px;word-spacing:0px;clip-rule:evenodd;fill:#9f425b;fill-opacity:1;fill-rule:evenodd;stroke:none;stroke-width:0.93756467;stroke-linejoin:round;stroke-miterlimit:1.41420996"
             x="864.43494"
             y="263.87653"
             id="text11920-3"><tspan
               id="tspan11918-6"
               x="864.43494"
               y="263.87653"
               style="font-style:normal;font-variant:normal;font-weight:normal;font-stretch:normal;font-size:40.00000381px;font-family:Vibrocentric;-inkscape-font-specification:Vibrocentric;fill:#9f425b;fill-opacity:1;stroke-width:0.93756467">Kotlin</tspan></text>
        </g>
        <text
           id="text12750"
           y="418.06778"
           x="903.72131"
           style="font-style:normal;font-weight:normal;font-size:40px;line-height:1.25;font-family:sans-serif;letter-spacing:0px;word-spacing:0px;fill:#000000;fill-opacity:1;stroke:none"
           xml:space="preserve"><tspan
             y="453.4584"
             x="903.72131"
             id="tspan12748"></tspan></text>
      </g>
    </g>
  </g>
</svg>
